# xmcd
#
# Track frame offsets:
#	183
#	26170
#	43308
#	54895
#	71958
#	76795
#	84633
#	89808
#	95283
#	104995
#	109568
#	120763
#	134638
#	144198
#	149338
#	156875
#	161600
#	175383
#	181380
#	203320
#	210143
#	257208
#	270633
#	279630
#	286835
#
# Disc length: 4189
#
# Revision: 3
# Processed by: cddbd v1.5.1PL0 Copyright (c) Steve Scherf et al.
# Submitted via: EasyCDDAExtractor 4.6.9.1
# Normalized: r2:TDELIM( - )
#
DISCID=6a105b19
DTITLE=Harald Vogel - Orgelland Ostfriesland
DYEAR=2000
DGENRE=Classical
TTITLE0=Buxtehude - Præludium in C BuxWV 137 (Norden)
TTITLE1=Buxtehude - Nun lob, mein Seel den Herren (Norden)
TTITLE2=Buxtehude - Wär Gott nicht mit uns diese Zeit (Norden)
TTITLE3=Buxtehude - Præludium in G BuxWV 147 (Norden)
TTITLE4=Claude Goudimel - Psalm 116 (Uttum)
TTITLE5=anonym - Pavane dan Vers (Uttum)
TTITLE6=anonym - Almande de al nonette (Uttum)
TTITLE7=J.P.Sweelinck - Engelsche Fortuyn (Uttum)
TTITLE8=J.P.Sweelinck - Toccata in a (Uttum)
TTITLE9=Samuel Scheidt - Ach Gott und Herr (Uttum)
TTITLE10=Conrad Paumann - Redeuntes in mi (Rysum)
TTITLE11=Arnolt Schlick - Maria zart (Rysum)
TTITLE12=anonym - Frysicum (Rysum)
TTITLE13=Adam Ileborgh - Præambulum super d (Rysum)
TTITLE14=Conrad Paumann - Fundamentum organisandi (Rysum)
TTITLE15=Paul Hofhaimer - Ade mit Leid (Rysum)
TTITLE16=Heinrich Isaac - Innsbruck, ich muß dich lassen (Rysum)
TTITLE17=Hans Leo Haßler - Vater unser im Himmelreich (Westerhusen)
TTITLE18=Samuel Scheidt - Vater unser im Himmelreich (Westerhusen)
TTITLE19=anonym - Psalm 130 (Westerhusen)
TTITLE20=J.S.Bach - Sarabande con Partite (Marienhafe)
TTITLE21=Georg Böhm - Prelude in F (Marienhafe)
TTITLE22=J.S.Bach - Herzlich tut mich verlangen (Weener)
TTITLE23=J.S.Bach - Wer nur den lieben Gott läßt walten (Weener)
TTITLE24=J.S.Bach - Præludium und Fuge g-moll (Weener)
EXTD=YEAR: 2000  ID3G:   0
EXTT0=
EXTT1=
EXTT2=
EXTT3=
EXTT4=
EXTT5=
EXTT6=
EXTT7=
EXTT8=
EXTT9=
EXTT10=
EXTT11=
EXTT12=
EXTT13=
EXTT14=
EXTT15=
EXTT16=
EXTT17=
EXTT18=
EXTT19=
EXTT20=
EXTT21=
EXTT22=
EXTT23=
EXTT24=
PLAYORDER=
